<?xml version="1.0" standalone="no"?><svg xmlns="http://www.w3.org/2000/svg" viewBox="0 0 1440 320"><path fill="#273036" fill-opacity="0.27" d="M0,288L17.1,277.3C34.3,267,69,245,103,224C137.1,203,171,181,206,154.7C240,128,274,96,309,85.3C342.9,75,377,85,411,80C445.7,75,480,53,514,80C548.6,107,583,181,617,218.7C651.4,256,686,256,720,250.7C754.3,245,789,235,823,202.7C857.1,171,891,117,926,90.7C960,64,994,64,1029,85.3C1062.9,107,1097,149,1131,176C1165.7,203,1200,213,1234,208C1268.6,203,1303,181,1337,176C1371.4,171,1406,181,1423,186.7L1440,192L1440,320L1422.9,320C1405.7,320,1371,320,1337,320C1302.9,320,1269,320,1234,320C1200,320,1166,320,1131,320C1097.1,320,1063,320,1029,320C994.3,320,960,320,926,320C891.4,320,857,320,823,320C788.6,320,754,320,720,320C685.7,320,651,320,617,320C582.9,320,549,320,514,320C480,320,446,320,411,320C377.1,320,343,320,309,320C274.3,320,240,320,206,320C171.4,320,137,320,103,320C68.6,320,34,320,17,320L0,320Z"></path></svg>