<?xml version="1.0" standalone="no"?><svg xmlns="http://www.w3.org/2000/svg" viewBox="0 0 1440 320"><path fill="#5000ca" fill-opacity="1" d="M0,288L17.1,277.3C34.3,267,69,245,103,224C137.1,203,171,181,206,154.7C240,128,274,96,309,85.3C342.9,75,377,85,411,80C445.7,75,480,53,514,80C548.6,107,583,181,617,218.7C651.4,256,686,256,720,250.7C754.3,245,789,235,823,202.7C857.1,171,891,117,926,90.7C960,64,994,64,1029,85.3C1062.9,107,1097,149,1131,176C1165.7,203,1200,213,1234,208C1268.6,203,1303,181,1337,176C1371.4,171,1406,181,1423,186.7L1440,192L1440,0L1422.9,0C1405.7,0,1371,0,1337,0C1302.9,0,1269,0,1234,0C1200,0,1166,0,1131,0C1097.1,0,1063,0,1029,0C994.3,0,960,0,926,0C891.4,0,857,0,823,0C788.6,0,754,0,720,0C685.7,0,651,0,617,0C582.9,0,549,0,514,0C480,0,446,0,411,0C377.1,0,343,0,309,0C274.3,0,240,0,206,0C171.4,0,137,0,103,0C68.6,0,34,0,17,0L0,0Z"></path></svg>