<?xml version="1.0" standalone="no"?>
<!DOCTYPE svg PUBLIC "-//W3C//DTD SVG 20010904//EN"
 "http://www.w3.org/TR/2001/REC-SVG-20010904/DTD/svg10.dtd">
<svg version="1.0" xmlns="http://www.w3.org/2000/svg"
 width="735.000000pt" height="480.000000pt" viewBox="0 0 735.000000 480.000000"
 preserveAspectRatio="xMidYMid meet">

<g transform="translate(0.000000,480.000000) scale(0.100000,-0.100000)"
fill="#000000" stroke="none">
<path d="M1124 4440 c-145 -38 -284 -127 -351 -223 -77 -113 -97 -306 -48
-454 14 -42 32 -85 40 -97 22 -30 20 -33 -36 -39 -205 -25 -388 -257 -389
-495 0 -223 159 -483 350 -570 46 -22 67 -25 147 -24 132 2 208 26 282 87 l31
27 1 -104 c1 -56 2 -229 2 -384 l-1 -281 -31 -43 c-34 -47 -61 -125 -61 -175
0 -55 28 -129 66 -173 44 -51 94 -79 161 -88 l50 -6 -23 -57 c-19 -44 -24 -75
-24 -145 0 -81 3 -95 35 -162 59 -123 147 -184 275 -192 95 -5 145 8 211 58
79 59 127 141 144 243 l6 37 57 0 c68 0 127 25 172 72 41 42 70 108 70 158 0
21 3 45 6 54 6 15 156 16 1604 16 880 0 1601 -4 1604 -8 3 -5 -8 -22 -25 -38
-39 -37 -93 -134 -113 -203 -65 -221 63 -466 300 -576 91 -43 168 -59 279 -59
145 0 255 33 372 110 103 68 188 193 214 315 18 84 5 200 -31 276 -16 35 -39
76 -50 90 -11 14 -20 30 -20 34 0 5 24 9 53 9 76 0 171 25 263 70 64 31 95 54
152 114 79 84 103 124 126 213 67 259 -87 511 -371 607 l-68 23 -3 216 -2 216
59 58 c62 61 81 102 81 178 0 49 -37 131 -76 167 -35 33 -110 67 -145 68 -14
0 -28 2 -31 6 -3 3 3 28 15 57 30 79 28 186 -5 259 -73 159 -247 250 -417 219
-178 -33 -303 -168 -315 -339 l-4 -57 -65 3 c-54 3 -73 -1 -116 -22 -59 -30
-108 -92 -117 -146 l-6 -37 -392 -7 c-215 -3 -773 -11 -1241 -16 -467 -6
-1112 -15 -1433 -20 -320 -5 -588 -7 -595 -4 -6 2 -27 27 -45 54 l-34 49 55
54 c98 95 157 250 157 411 0 183 -62 328 -200 467 -90 92 -149 129 -247 154
-78 20 -221 18 -309 -5z m237 -194 c168 -36 304 -155 350 -308 35 -115 9 -230
-72 -322 -61 -70 -169 -118 -231 -103 -53 14 -109 94 -129 186 -23 107 30 218
112 236 52 12 12 26 -51 19 -141 -16 -211 -92 -190 -204 17 -90 47 -135 215
-325 121 -135 163 -192 202 -273 29 -61 36 -89 41 -158 l5 -84 36 0 c20 0 41
-4 47 -8 15 -9 38 -131 64 -333 26 -206 58 -410 65 -417 7 -8 2 -22 111 305
99 296 101 302 91 356 -13 71 -6 87 37 87 29 0 36 -4 45 -32 11 -32 53 -309
86 -568 8 -69 18 -132 21 -140 8 -21 102 213 185 460 56 167 52 210 -23 239
-20 7 -25 15 -21 30 5 20 13 21 114 21 l109 0 0 -25 c0 -20 -5 -25 -25 -25
-19 0 -26 -7 -34 -32 -27 -92 -299 -829 -310 -842 -18 -22 -48 -20 -60 3 -12
21 -61 318 -87 519 -9 73 -21 129 -25 125 -4 -4 -51 -141 -104 -303 -116 -357
-117 -360 -149 -360 -14 0 -29 8 -34 18 -28 53 -77 365 -88 557 -3 61 -7 128
-9 150 -2 22 -3 68 -4 103 -1 61 -1 62 -30 62 -23 0 -31 -6 -41 -31 -32 -76
-155 -235 -202 -260 -18 -10 -17 -6 5 33 61 105 75 250 37 397 -49 192 -184
404 -397 621 -50 51 -85 98 -110 148 -32 65 -37 82 -37 150 0 62 5 87 25 132
76 161 258 238 460 196z m4836 -545 c52 -26 111 -95 119 -138 21 -110 -21
-206 -111 -255 -68 -38 -169 -39 -235 -4 -54 28 -105 91 -120 147 -29 106 39
221 156 265 51 19 139 12 191 -15z m-5231 -268 c92 -30 166 -97 253 -226 60
-88 110 -216 126 -324 8 -54 -10 -58 -20 -5 -24 134 -167 321 -288 377 -98 46
-216 25 -271 -49 -27 -36 -59 -128 -54 -153 3 -14 7 -12 20 12 61 114 226 134
322 38 44 -43 66 -105 66 -181 -1 -111 -41 -160 -151 -188 -139 -36 -280 1
-369 95 -72 77 -94 129 -98 243 -4 87 -2 102 21 152 48 105 106 161 206 203
68 28 165 30 237 6z m4772 -53 c87 -53 95 -157 18 -229 -36 -33 -125 -41 -173
-16 -97 53 -98 195 -1 247 45 24 115 23 156 -2z m685 -159 c36 -14 76 -60 89
-103 30 -102 -81 -206 -189 -176 -47 12 -99 61 -113 104 -13 38 0 100 28 133
38 46 124 65 185 42z m-3213 -178 c0 -49 -7 -164 -15 -258 -14 -160 -25 -309
-41 -591 -8 -139 -1 -161 48 -166 48 -5 44 -24 -8 -42 -90 -30 -134 -17 -149
47 -4 15 -2 80 5 145 17 176 60 539 70 607 5 33 14 103 20 155 5 52 13 107 16
123 5 26 4 27 -40 27 -39 0 -46 3 -46 20 0 18 7 20 70 20 l70 0 0 -87z m1020
-339 c51 -21 76 -55 96 -135 47 -183 -55 -479 -196 -573 -48 -31 -70 -33 -70
-5 0 30 18 59 38 59 21 0 67 42 86 78 34 65 50 156 50 282 1 110 -2 130 -21
166 -12 23 -34 51 -49 61 -22 17 -25 24 -19 51 8 37 24 40 85 16z m645 -8 c34
-34 48 -95 40 -185 l-6 -76 43 79 c24 43 66 103 93 133 43 48 56 56 95 60 38
4 48 1 68 -19 35 -38 43 -116 27 -255 -20 -170 -27 -333 -17 -368 7 -24 15
-31 43 -35 21 -3 34 -11 34 -20 0 -26 -130 -52 -162 -32 -37 24 -36 106 7 403
23 156 25 240 8 257 -79 79 -233 -232 -263 -530 -4 -35 -11 -78 -17 -96 -9
-30 -13 -33 -46 -30 l-37 3 2 90 c1 50 12 173 23 275 12 102 20 210 18 240 -3
52 -5 55 -31 58 -83 10 -178 -203 -221 -492 -24 -165 -30 -178 -76 -174 -25 3
-25 3 -22 98 3 108 25 311 47 445 21 131 21 135 -15 135 -23 0 -30 4 -30 20 0
18 7 20 61 20 l60 0 -6 -137 -5 -138 30 64 c57 120 132 210 185 224 37 9 46 7
70 -17z m921 -17 c33 -31 47 -91 39 -164 -17 -150 -120 -269 -256 -296 -59
-12 -59 -12 -59 -48 0 -81 52 -130 124 -117 27 5 41 18 74 69 69 106 180 205
299 266 70 35 70 24 -3 -51 -80 -84 -124 -144 -162 -226 -23 -49 -27 -70 -27
-152 0 -87 3 -101 33 -164 38 -81 100 -159 242 -308 180 -189 214 -246 214
-353 0 -53 -5 -80 -22 -112 -104 -198 -376 -283 -587 -184 -170 79 -248 270
-172 418 57 112 142 176 228 174 58 -1 93 -17 137 -62 94 -96 55 -237 -75
-272 -24 -6 -43 -14 -43 -18 0 -11 108 -21 143 -14 131 29 169 124 103 258
-31 64 -92 128 -199 210 -160 121 -189 168 -191 306 -1 47 3 99 7 114 8 28 7
29 -25 20 -147 -37 -216 48 -205 251 9 169 64 328 143 416 36 40 64 52 64 28
0 -7 -15 -43 -34 -79 -34 -67 -71 -230 -64 -286 2 -24 8 -28 36 -31 69 -7 148
66 178 164 28 93 10 204 -35 219 -23 7 -30 50 -8 58 22 7 79 -11 103 -34z
m-2926 18 c13 -7 35 -28 48 -47 21 -31 23 -44 20 -110 -8 -168 -122 -303 -277
-326 l-43 -7 6 -45 c16 -121 115 -148 204 -56 31 33 44 41 48 30 12 -32 -57
-117 -123 -150 -92 -46 -170 -24 -213 59 -22 44 -25 61 -24 150 2 169 56 338
141 443 19 23 39 42 44 42 20 0 21 -33 1 -59 -28 -38 -59 -144 -71 -241 -12
-95 -8 -110 29 -110 67 0 126 43 166 122 33 65 35 201 3 242 -11 14 -27 26
-34 26 -13 0 -35 29 -35 44 0 11 85 6 110 -7z m845 -3 c21 -14 25 -24 25 -64
0 -80 -10 -111 -33 -108 -14 2 -25 18 -38 57 -9 29 -23 58 -31 63 -7 5 -33 7
-58 4 -81 -8 -129 -94 -149 -272 -19 -163 9 -283 74 -312 58 -27 119 -2 163
64 36 56 68 34 37 -25 -58 -114 -219 -173 -304 -112 -137 98 -91 484 76 648
29 29 68 57 86 62 52 15 125 13 152 -5z m365 -24 c0 -18 -5 -30 -13 -30 -21 0
-64 -51 -86 -101 -25 -57 -51 -186 -51 -254 0 -51 18 -136 41 -191 10 -25 10
-40 -1 -78 -15 -56 -34 -59 -77 -13 -49 50 -63 97 -63 203 0 191 80 376 204
472 38 29 46 28 46 -8z m2555 -415 c67 -33 129 -101 151 -167 31 -94 1 -286
-61 -394 -31 -53 -106 -121 -160 -145 -60 -26 -168 -39 -240 -27 -162 25 -321
196 -354 382 -18 100 -11 283 10 270 5 -3 9 -20 9 -37 0 -42 35 -168 61 -219
28 -54 91 -122 144 -152 83 -49 205 -68 288 -45 72 20 148 110 163 194 l7 40
-43 -48 c-97 -110 -235 -127 -330 -41 -95 86 -91 222 9 327 91 96 227 121 346
62z m-5185 -465 c47 -24 70 -66 70 -129 0 -88 -73 -148 -169 -139 -177 17
-190 248 -16 288 36 9 68 3 115 -20z m650 -222 c53 -37 75 -73 75 -126 0 -161
-231 -203 -297 -54 -13 30 -18 55 -14 77 20 103 152 160 236 103z m-333 -152
c76 -36 108 -88 108 -177 0 -59 -4 -73 -30 -110 -43 -61 -93 -84 -182 -84 -63
0 -76 3 -115 30 -83 59 -113 167 -69 253 24 47 45 66 101 91 60 28 123 26 187
-3z"/>
</g>
</svg>
